<?xml version='1.0' encoding='utf-8'?>
<!-- Generator: Adobe Illustrator 23.1.0, SVG Export Plug-In . SVG Version: 6.00 Build 0)  -->
<svg xml:space="preserve" version="1.1" xmlns:xlink="http://www.w3.org/1999/xlink" y="0px" x="0px" id="Слой_1" viewBox="0 0 512 512" style="enable-background:new 0 0 512 512;" xmlns="http://www.w3.org/2000/svg">
 <style type="text/css">&#xd;
	.st0{fill:#004C83;}&#xd;
	.st1{display:none;}&#xd;
	.st2{display:inline;fill:#FFFFFF;}&#xd;
	.st3{display:inline;fill:none;stroke:#FFFFFF;stroke-width:13;stroke-miterlimit:10;}&#xd;
	.st4{display:inline;fill:none;stroke:#FFFFFF;stroke-width:8;stroke-miterlimit:10;}&#xd;
	.st5{display:inline;}&#xd;
	.st6{fill:none;stroke:#FFFFFF;stroke-width:30;stroke-miterlimit:10;}&#xd;
	.st7{fill:#FFFFFF;}&#xd;
	.st8{display:inline;fill:none;stroke:#FFFFFF;stroke-width:19;stroke-miterlimit:10;}&#xd;
	.st9{fill:none;stroke:#FFFFFF;stroke-width:19;stroke-miterlimit:10;}&#xd;
	.st10{display:inline;fill:none;stroke:#FFFFFF;stroke-width:30;stroke-miterlimit:10;}&#xd;
</style>
 <rect class="st0" y="0" height="512" width="512"/>
 <g class="st1" id="дом">
  <path d="M121.5,438.5h-11.2c-6,0-10.9-4.9-10.9-10.9V195.8c0-6,4.9-10.9,10.9-10.9h11.2c6,0,10.9,4.9,10.9,10.9v231.8&#xd;&#xa;&#x9;&#x9;C132.4,433.6,127.5,438.5,121.5,438.5z" class="st2"/>
  <path d="M410.8,438.5h-11.2c-6,0-10.9-4.9-10.9-10.9V195.8c0-6,4.9-10.9,10.9-10.9h11.2c6,0,10.9,4.9,10.9,10.9v231.8&#xd;&#xa;&#x9;&#x9;C421.7,433.6,416.8,438.5,410.8,438.5z" class="st2"/>
  <path d="M209.9,438.5h-99.3c-6.2,0-11.2-5-11.2-11.2v-17.5c0-6.2,5.1-11.2,11.2-11.2h99.3c6.2,0,11.2,5,11.2,11.2v17.5&#xd;&#xa;&#x9;&#x9;C221.1,433.5,216.1,438.5,209.9,438.5z" class="st2"/>
  <path d="M410.5,438.5h-99.3c-6.2,0-11.2-5-11.2-11.2v-17.5c0-6.2,5-11.2,11.2-11.2h99.3c6.2,0,11.2,5,11.2,11.2v17.5&#xd;&#xa;&#x9;&#x9;C421.7,433.5,416.6,438.5,410.5,438.5z" class="st2"/>
  <path d="M75.8,227.6l-7-8.5c-3.8-4.6-3.2-11.6,1.5-15.4l181-149.3c4.6-3.8,11.6-3.2,15.4,1.5l7,8.5&#xd;&#xa;&#x9;&#x9;c3.8,4.7,3.2,11.6-1.5,15.4l-181,149.3C86.6,232.9,79.7,232.3,75.8,227.6z" class="st2"/>
  <path d="M447.2,227.9l7-8.5c3.8-4.6,3.2-11.6-1.5-15.4L271.4,54.4c-4.6-3.8-11.6-3.2-15.4,1.5l-7,8.5&#xd;&#xa;&#x9;&#x9;c-3.8,4.7-3.2,11.6,1.5,15.4l181.3,149.5C436.4,233.2,443.4,232.5,447.2,227.9z" class="st2"/>
  <path d="M292.7,438.5h-64.3c-6.6,0-12-5.4-12-12V258c0-6.6,5.4-12,12-12h64.3c6.6,0,12,5.4,12,12v168.5&#xd;&#xa;&#x9;&#x9;C304.7,433.1,299.3,438.5,292.7,438.5z" class="st3"/>
  <path d="M380.3,167.9h-13.5c-4.7,0-8.5-3.8-8.5-8.5v-93c0-4.7,3.8-8.5,8.5-8.5h13.5c4.7,0,8.5,3.8,8.5,8.5v93&#xd;&#xa;&#x9;&#x9;C388.8,164.1,384.9,167.9,380.3,167.9z" class="st4"/>
 </g>
 <g class="st1" id="отсюда">
  <path d="M54.9,463.7l-2.8-2.8c-5.9-5.9-5.9-15.5,0-21.5l160.6-160.6c5.9-5.9,15.5-5.9,21.5,0l2.8,2.8&#xd;&#xa;&#x9;&#x9;c5.9,5.9,5.9,15.5,0,21.5L76.3,463.7C70.4,469.6,60.8,469.6,54.9,463.7z" class="st2"/>
  <path d="M71,468.1H57.2c-5.3,0-9.6-4.3-9.6-9.6v-90.7c0-5.3,4.3-9.6,9.6-9.6H71c5.3,0,9.6,4.3,9.6,9.6v90.7&#xd;&#xa;&#x9;&#x9;C80.6,463.8,76.3,468.1,71,468.1z" class="st2"/>
  <path d="M157.5,444.8v13.8c0,5.3-4.3,9.6-9.6,9.6H57.2c-5.3,0-9.6-4.3-9.6-9.6v-13.8c0-5.3,4.3-9.6,9.6-9.6H148&#xd;&#xa;&#x9;&#x9;C153.3,435.2,157.5,439.5,157.5,444.8z" class="st2"/>
  <path d="M456.4,55.9l2.8,2.8c6,5.9,6,15.5,0.1,21.5L299.2,241.3c-5.9,5.9-15.5,6-21.5,0.1l-2.8-2.8&#xd;&#xa;&#x9;&#x9;c-6-5.9-6-15.5-0.1-21.5L434.9,56C440.8,50,450.4,50,456.4,55.9z" class="st2"/>
  <path d="M440.2,51.5l13.8,0c5.3,0,9.6,4.3,9.6,9.5l0.3,90.7c0,5.3-4.3,9.6-9.5,9.6l-13.8,0.1c-5.3,0-9.6-4.3-9.6-9.6&#xd;&#xa;&#x9;&#x9;l-0.3-90.7C430.6,55.8,434.9,51.5,440.2,51.5z" class="st2"/>
  <path d="M353.8,75.2l0-13.8c0-5.3,4.3-9.6,9.5-9.6l90.7-0.3c5.3,0,9.6,4.3,9.6,9.5l0,13.8c0,5.3-4.3,9.6-9.5,9.6&#xd;&#xa;&#x9;&#x9;l-90.7,0.3C358.1,84.7,353.8,80.5,353.8,75.2z" class="st2"/>
 </g>
 <g class="st1" id="ТУДА">
  <path d="M236.9,284.3v13.8c0,5.3-4.3,9.6-9.6,9.6h-90.7c-5.3,0-9.6-4.3-9.6-9.6v-13.8c0-5.3,4.3-9.6,9.6-9.6h90.7&#xd;&#xa;&#x9;&#x9;C232.6,274.7,236.9,279,236.9,284.3z" class="st2"/>
  <path d="M50.4,464l-2.8-2.8c-5.9-5.9-5.9-15.5,0-21.5l160.6-160.6c5.9-5.9,15.5-5.9,21.5,0l2.8,2.8&#xd;&#xa;&#x9;&#x9;c5.9,5.9,5.9,15.5,0,21.5L71.8,464C65.9,469.9,56.3,469.9,50.4,464z" class="st2"/>
  <path d="M227.3,384.6h-13.8c-5.3,0-9.6-4.3-9.6-9.6v-90.7c0-5.3,4.3-9.6,9.6-9.6h13.8c5.3,0,9.6,4.3,9.6,9.6V375&#xd;&#xa;&#x9;&#x9;C236.9,380.3,232.6,384.6,227.3,384.6z" class="st2"/>
  <path d="M462.4,44l2.8,2.8c6,5.9,6,15.5,0.1,21.5l-160,161.2c-5.9,5.9-15.5,6-21.5,0.1l-2.8-2.8&#xd;&#xa;&#x9;&#x9;c-6-5.9-6-15.5-0.1-21.5L440.9,44.1C446.8,38.2,456.4,38.1,462.4,44z" class="st2"/>
  <path d="M285.1,125l13.8-0.1c5.3,0,9.6,4.3,9.6,9.6l0.3,90.7c0,5.3-4.3,9.6-9.5,9.6l-13.8,0.1c-5.3,0-9.6-4.3-9.6-9.6&#xd;&#xa;&#x9;&#x9;l-0.3-90.7C275.6,129.3,279.9,125,285.1,125z" class="st2"/>
  <path d="M276,225.3l0-13.8c0-5.3,4.3-9.6,9.5-9.6l90.7-0.3c5.3,0,9.6,4.3,9.6,9.6l0,13.8c0,5.3-4.3,9.6-9.5,9.6&#xd;&#xa;&#x9;&#x9;l-90.7,0.3C280.3,234.9,276,230.6,276,225.3z" class="st2"/>
 </g>
 <g class="st1" id="михаил_круг">
  <g class="st5">
   <circle class="st6" r="211.7" cy="261.7" cx="256"/>
   <path d="M350.2,85.1h-89.3c-2.7,0-4.9-2.2-4.9-4.9V22.9c0-2.7,2.2-4.9,4.9-4.9h89.3c2.7,0,4.9,2.2,4.9,4.9v57.3&#xd;&#xa;&#x9;&#x9;&#x9;C355.1,82.9,352.9,85.1,350.2,85.1z" class="st0"/>
   <path d="M446,52.9v13.8c0,5.3-4.3,9.6-9.6,9.6h-90.7c-5.3,0-9.6-4.3-9.6-9.6V52.9c0-5.3,4.3-9.6,9.6-9.6h90.7&#xd;&#xa;&#x9;&#x9;&#x9;C441.7,43.4,446,47.6,446,52.9z" class="st7"/>
   <path d="M359.6,150.7h-14c-5.2,0-9.5-4.2-9.5-9.5V52.8c0-5.2,4.2-9.5,9.5-9.5h14c5.2,0,9.5,4.2,9.5,9.5v88.4&#xd;&#xa;&#x9;&#x9;&#x9;C369.1,146.4,364.8,150.7,359.6,150.7z" class="st7"/>
  </g>
  <path d="M262.2,37.9v24.5c0,1.7-1.4,3.1-3.1,3.1h-6.2c-1.7,0-3.1-1.4-3.1-3.1V37.9c0-1.7,1.4-3.1,3.1-3.1h6.2&#xd;&#xa;&#x9;&#x9;C260.8,34.8,262.2,36.2,262.2,37.9z" class="st2"/>
 </g>
 <g class="st1" id="он_звук_1_">
  <path d="M394.2,78.6L396,82c3.9,7.4,0.9,16.6-6.5,20.5L187.7,206.8c-7.4,3.9-16.6,0.9-20.4-6.5l-1.8-3.5&#xd;&#xa;&#x9;&#x9;c-3.9-7.4-0.9-16.6,6.5-20.4L373.7,72C381.1,68.2,390.3,71.1,394.2,78.6z" class="st2"/>
  <path d="M381.3,70.3L381.3,70.3c9.5,0,17.1,7.7,17.1,17.1v309.5c0,9.5-7.7,17.1-17.1,17.1l0,0&#xd;&#xa;&#x9;&#x9;c-9.5,0-17.1-7.7-17.1-17.1V87.4C364.1,78,371.8,70.3,381.3,70.3z" class="st2"/>
  <path d="M396.6,402.6l-1.8,3.6c-3.8,7.5-12.9,10.5-20.3,6.7L172.6,311.3c-7.5-3.8-10.5-12.9-6.7-20.3l1.8-3.6&#xd;&#xa;&#x9;&#x9;c3.8-7.5,12.9-10.5,20.3-6.7l201.9,101.6C397.3,386.1,400.4,395.2,396.6,402.6z" class="st2"/>
  <path d="M187.3,308.5h-12.8c-5.9,0-10.7-4.8-10.7-10.7V190.4c0-5.9,4.8-10.7,10.7-10.7h12.8c5.9,0,10.7,4.8,10.7,10.7&#xd;&#xa;&#x9;&#x9;v107.3C198,303.7,193.2,308.5,187.3,308.5z" class="st2"/>
  <path d="M198,283v16.6c0,4.9-3.9,8.8-8.8,8.8h-69.3c-4.9,0-8.8-4-8.8-8.8V283c0-4.9,3.9-8.8,8.8-8.8h69.3&#xd;&#xa;&#x9;&#x9;C194.1,274.2,198,278.2,198,283z" class="st2"/>
  <path d="M131.3,308.5h-12.8c-5.9,0-10.7-4.8-10.7-10.7V190.4c0-5.9,4.8-10.7,10.7-10.7h12.8c5.9,0,10.7,4.8,10.7,10.7&#xd;&#xa;&#x9;&#x9;v107.3C142,303.7,137.2,308.5,131.3,308.5z" class="st2"/>
  <path d="M194.7,188.5v16.6c0,4.9-3.9,8.8-8.8,8.8h-69.3c-4.9,0-8.8-3.9-8.8-8.8v-16.6c0-4.9,3.9-8.8,8.8-8.8h69.3&#xd;&#xa;&#x9;&#x9;C190.8,179.7,194.7,183.6,194.7,188.5z" class="st2"/>
  <ellipse class="st8" ry="23.5" rx="21.2" cy="244.1" cx="395.5"/>
 </g>
 <g class="st1" id="не_он_звук">
  <g class="st5" id="он_звук">
   <path d="M394.2,78.8l1.8,3.5c3.9,7.4,0.9,16.6-6.5,20.5L187.7,207c-7.4,3.9-16.6,0.9-20.4-6.5l-1.8-3.5&#xd;&#xa;&#x9;&#x9;&#x9;c-3.9-7.4-0.9-16.6,6.5-20.4L373.7,72.3C381.1,68.4,390.3,71.4,394.2,78.8z" class="st7"/>
   <path d="M381.3,70.6L381.3,70.6c9.5,0,17.1,7.7,17.1,17.1v309.5c0,9.5-7.7,17.1-17.1,17.1l0,0&#xd;&#xa;&#x9;&#x9;&#x9;c-9.5,0-17.1-7.7-17.1-17.1V87.7C364.1,78.2,371.8,70.6,381.3,70.6z" class="st7"/>
   <path d="M396.6,402.9l-1.8,3.6c-3.8,7.5-12.9,10.5-20.3,6.7L172.6,311.6c-7.5-3.8-10.5-12.9-6.7-20.3l1.8-3.6&#xd;&#xa;&#x9;&#x9;&#x9;c3.8-7.5,12.9-10.5,20.3-6.7l201.9,101.6C397.3,386.3,400.4,395.4,396.6,402.9z" class="st7"/>
   <path d="M187.3,308.7h-12.8c-5.9,0-10.7-4.8-10.7-10.7V190.7c0-5.9,4.8-10.7,10.7-10.7h12.8c5.9,0,10.7,4.8,10.7,10.7&#xd;&#xa;&#x9;&#x9;&#x9;V298C198,303.9,193.2,308.7,187.3,308.7z" class="st7"/>
   <path d="M198,283.3v16.6c0,4.9-3.9,8.8-8.8,8.8h-69.3c-4.9,0-8.8-4-8.8-8.8v-16.6c0-4.9,3.9-8.8,8.8-8.8h69.3&#xd;&#xa;&#x9;&#x9;&#x9;C194.1,274.5,198,278.4,198,283.3z" class="st7"/>
   <path d="M131.3,308.7h-12.8c-5.9,0-10.7-4.8-10.7-10.7V190.7c0-5.9,4.8-10.7,10.7-10.7h12.8c5.9,0,10.7,4.8,10.7,10.7&#xd;&#xa;&#x9;&#x9;&#x9;V298C142,303.9,137.2,308.7,131.3,308.7z" class="st7"/>
   <path d="M194.7,188.8v16.6c0,4.9-3.9,8.8-8.8,8.8h-69.3c-4.9,0-8.8-3.9-8.8-8.8v-16.6c0-4.9,3.9-8.8,8.8-8.8h69.3&#xd;&#xa;&#x9;&#x9;&#x9;C190.8,179.9,194.7,183.9,194.7,188.8z" class="st7"/>
   <ellipse class="st9" ry="23.5" rx="21.2" cy="244.3" cx="395.5"/>
  </g>
  <path d="M486.6,403.2l-0.4,0.5c-5.2,7.7-15.6,9.8-23.3,4.6L50.6,132.1c-7.7-5.2-9.8-15.6-4.6-23.3l0.4-0.6&#xd;&#xa;&#x9;&#x9;c5.2-7.7,15.6-9.8,23.3-4.6L482,379.9C489.7,385.1,491.8,395.5,486.6,403.2z" class="st2"/>
 </g>
 <g class="st1" id="лупа">
  <circle class="st10" r="104.9" cy="164.3" cx="200.2"/>
  <path d="M250.1,250.6l3-2.5c6.5-5.3,16-4.4,21.4,2.1L419,425.3c5.3,6.5,4.4,16-2,21.4l-3,2.5c-6.5,5.3-16,4.4-21.4-2&#xd;&#xa;&#x9;&#x9;L248,271.9C242.7,265.5,243.6,255.9,250.1,250.6z" class="st2"/>
  <path d="M153.2,172.2v-15.9c0-5.1,4.1-9.2,9.2-9.2H238c5.1,0,9.2,4.1,9.2,9.2v15.9c0,5.1-4.1,9.2-9.2,9.2h-75.6&#xd;&#xa;&#x9;&#x9;C157.3,181.4,153.2,177.3,153.2,172.2z" class="st2"/>
 </g>
 <g class="st1" id="за_лупа">
  <circle class="st10" r="104.9" cy="164.3" cx="200.2"/>
  <path d="M250.1,250.6l3-2.5c6.5-5.3,16-4.4,21.4,2.1L419,425.3c5.3,6.5,4.4,16-2,21.4l-3,2.5c-6.5,5.3-16,4.4-21.4-2&#xd;&#xa;&#x9;&#x9;L248,271.9C242.7,265.5,243.6,255.9,250.1,250.6z" class="st2"/>
  <path d="M153.2,172.2v-15.9c0-5.1,4.1-9.2,9.2-9.2H238c5.1,0,9.2,4.1,9.2,9.2v15.9c0,5.1-4.1,9.2-9.2,9.2h-75.6&#xd;&#xa;&#x9;&#x9;C157.3,181.4,153.2,177.3,153.2,172.2z" class="st2"/>
  <path d="M192.2,117.3h15.9c5.1,0,9.2,4.1,9.2,9.2V202c0,5.1-4.1,9.2-9.2,9.2h-15.9c-5.1,0-9.2-4.1-9.2-9.2v-75.6&#xd;&#xa;&#x9;&#x9;C183,121.4,187.1,117.3,192.2,117.3z" class="st2"/>
 </g>
 <g class="st1" id="вверху">
  <circle class="st10" r="200.5" cy="256" cx="256"/>
  <g class="st5">
   <path d="M344.9,273.4l-8.2,8.2c-4.4,4.4-11.6,4.4-16,0l-81.1-81.1c-4.4-4.4-4.4-11.6,0-16l8.2-8.2&#xd;&#xa;&#x9;&#x9;&#x9;c4.4-4.4,11.6-4.4,16,0l81.1,81.1C349.3,261.8,349.3,269,344.9,273.4z" class="st7"/>
   <path d="M264.3,176.3l8.2,8.2c4.4,4.4,4.4,11.6,0,16l-81.1,81.1c-4.4,4.4-11.6,4.4-16,0l-8.2-8.2&#xd;&#xa;&#x9;&#x9;&#x9;c-4.4-4.4-4.4-11.6,0-16l81.1-81.1C252.7,171.8,259.9,171.8,264.3,176.3z" class="st7"/>
  </g>
 </g>
 <g class="st1" id="внизу">
  <g class="st5">
   <path d="M167.1,205.9l8.2-8.2c4.4-4.4,11.6-4.4,16,0l81.1,81.1c4.4,4.4,4.4,11.6,0,16l-8.2,8.2&#xd;&#xa;&#x9;&#x9;&#x9;c-4.4,4.4-11.6,4.4-16,0l-81.1-81.1C162.7,217.5,162.7,210.3,167.1,205.9z" class="st7"/>
   <path d="M247.7,303l-8.2-8.2c-4.4-4.4-4.4-11.6,0-16l81.1-81.1c4.4-4.4,11.6-4.4,16,0l8.2,8.2c4.4,4.4,4.4,11.6,0,16&#xd;&#xa;&#x9;&#x9;&#x9;L263.8,303C259.3,307.5,252.1,307.5,247.7,303z" class="st7"/>
  </g>
  <circle class="st10" r="200.5" cy="256" cx="256"/>
 </g>
 <g class="st1" id="влево">
  <g class="st5">
   <path d="M216.9,339.2l-8.2-8.2c-4.4-4.4-4.4-11.6,0-16l81.1-81.1c4.4-4.4,11.6-4.4,16,0l8.2,8.2&#xd;&#xa;&#x9;&#x9;&#x9;c4.4,4.4,4.4,11.6,0,16L233,339.2C228.6,343.7,221.4,343.7,216.9,339.2z" class="st7"/>
   <path d="M314.1,258.6l-8.2,8.2c-4.4,4.4-11.6,4.4-16,0l-81.1-81.1c-4.4-4.4-4.4-11.6,0-16l8.2-8.2&#xd;&#xa;&#x9;&#x9;&#x9;c4.4-4.4,11.6-4.4,16,0l81.1,81.1C318.5,247,318.5,254.2,314.1,258.6z" class="st7"/>
  </g>
  <circle class="st10" r="200.5" cy="256" cx="256"/>
 </g>
 <circle class="st7" r="124.5" cy="179.6" cx="256"/>
 <path d="M251.8,448.4L251.8,448.4c4.9,2.2,10.6,0,12.8-4.9l81.1-180.8c2.2-4.9,0-10.6-4.9-12.8h0&#xd;&#xa;&#x9;c-4.9-2.2-10.6,0-12.8,4.9L247,435.6C244.8,440.5,246.9,446.2,251.8,448.4z" class="st7"/>
 <path d="M259.2,448.4L259.2,448.4c-4.9,2.2-10.6,0-12.8-4.9l-81.1-180.8c-2.2-4.9,0-10.6,4.9-12.8h0&#xd;&#xa;&#x9;c4.9-2.2,10.6,0,12.8,4.9L264,435.6C266.2,440.5,264.1,446.2,259.2,448.4z" class="st7"/>
 <path d="M264.5,420.1L264.5,420.1c-4.9,2.2-10.6,0-12.8-4.9l-81.1-180.8c-2.2-4.9,0-10.6,4.9-12.8h0&#xd;&#xa;&#x9;c4.9-2.2,10.6,0,12.8,4.9l81.1,180.8C271.5,412.2,269.4,417.9,264.5,420.1z" class="st7"/>
 <path d="M276.5,398.1L276.5,398.1c-4.9,2.2-10.6,0-12.8-4.9l-81.1-180.8c-2.2-4.9,0-10.6,4.9-12.8h0&#xd;&#xa;&#x9;c4.9-2.2,10.6,0,12.8,4.9l81.1,180.8C283.5,390.2,281.3,395.9,276.5,398.1z" class="st7"/>
 <path d="M286.2,376.8L286.2,376.8c-4.9,2.2-10.6,0-12.8-4.9l-81.1-180.8c-2.2-4.9,0-10.6,4.9-12.8l0,0&#xd;&#xa;&#x9;c4.9-2.2,10.6,0,12.8,4.9L291,364C293.2,368.9,291,374.6,286.2,376.8z" class="st7"/>
 <path d="M295.1,355.1L295.1,355.1c-4.9,2.2-10.6,0-12.8-4.9l-81.1-180.8c-2.2-4.9,0-10.6,4.9-12.8h0&#xd;&#xa;&#x9;c4.9-2.2,10.6,0,12.8,4.9l81.1,180.8C302.1,347.2,299.9,352.9,295.1,355.1z" class="st7"/>
 <path d="M304,336.5L304,336.5c-4.9,2.2-10.6,0-12.8-4.9l-81.1-180.8c-2.2-4.9,0-10.6,4.9-12.8h0&#xd;&#xa;&#x9;c4.9-2.2,10.6,0,12.8,4.9l81.1,180.8C311,328.6,308.8,334.3,304,336.5z" class="st7"/>
 <path d="M314.7,314.8L314.7,314.8c-4.9,2.2-10.6,0-12.8-4.9l-81.1-180.8c-2.2-4.9,0-10.6,4.9-12.8l0,0&#xd;&#xa;&#x9;c4.9-2.2,10.6,0,12.8,4.9l81.1,180.8C321.8,306.9,319.6,312.7,314.7,314.8z" class="st7"/>
 <path d="M267.6,398.1L267.6,398.1c-4.9,2.2-10.6,0-12.8-4.9l-81.1-180.8c-2.2-4.9,0-10.6,4.9-12.8h0&#xd;&#xa;&#x9;c4.9-2.2,10.6,0,12.8,4.9l81.1,180.8C274.6,390.2,272.5,395.9,267.6,398.1z" class="st7"/>
 <circle class="st0" r="61.4" cy="179.6" cx="256"/>
</svg>
